<?xml version="1.0" standalone="no"?>
<!DOCTYPE svg PUBLIC "-//W3C//DTD SVG 20010904//EN"
 "http://www.w3.org/TR/2001/REC-SVG-20010904/DTD/svg10.dtd">
<svg version="1.0" xmlns="http://www.w3.org/2000/svg"
 width="330.000000pt" height="330.000000pt" viewBox="0 -77.5 330.000000 330.000000"
 preserveAspectRatio="xMidYMid meet">
<circle cx="165" cy="87.5" r="165" fill="#ffffff" />
<g transform="translate(0.000000,175.000000) scale(0.050000,-0.050000)"
fill="#000000" stroke="none">
<path d="M4018 2662 c-194 -62 -333 -173 -782 -624 l-434 -436 -96 28 c-514
149 -1449 41 -1866 -216 -537 -331 -334 -783 350 -780 479 3 813 160 1356 636
l176 155 119 -14 c150 -17 236 -45 297 -99 l48 -42 -15 60 c-19 80 -81 144
-197 203 l-96 48 262 276 c401 422 670 645 873 724 134 52 388 66 430 24 29
-29 77 -33 77 -7 0 82 -319 123 -502 64z m-1399 -1250 c-406 -383 -732 -596
-1031 -673 -857 -219 -1156 245 -335 520 385 129 1469 251 1366 153z"/>
<path d="M5845 2621 c-344 -124 -1153 -634 -1613 -1018 -186 -155 -174 -170
84 -104 749 191 1106 -359 568 -874 -154 -147 -151 -169 9 -89 901 455 538
1285 -458 1047 -85 -21 -155 -35 -155 -32 0 13 562 412 765 544 228 148 697
395 865 456 109 39 150 64 150 91 0 29 -103 19 -215 -21z"/>
<path d="M3890 2328 c-760 -895 -930 -1426 -569 -1779 90 -88 124 -82 56 11
-185 250 79 989 613 1712 122 165 152 245 100 261 -11 4 -101 -89 -200 -205z"/>
<path d="M4507 2436 c-233 -245 -1041 -1739 -1023 -1893 5 -44 26 -15 122 164
237 447 644 1089 978 1543 131 179 142 236 46 246 -47 4 -75 -9 -123 -60z"/>
</g>
</svg>

